<?xml version="1.0" encoding="UTF-8"?><svg width="105px" height="47px" viewBox="0 0 105 47" version="1.1" xmlns="http://www.w3.org/2000/svg" xmlns:xlink="http://www.w3.org/1999/xlink">        <title>Page 1</title>    <desc>Created with Sketch.</desc>    <defs>        <polygon id="path-1" points="0.123107755 0.120063088 20.7517348 0.120063088 20.7517348 27.8098199 0.123107755 27.8098199 0.123107755 0.120063088"></polygon>        <polygon id="path-3" points="0.026965048 7.53432337 1.67127575 7.53432337 1.67127575 0.00544415624 0.026965048 0.00544415624 0.026965048 7.53432337"></polygon>        <polygon id="path-5" points="4.84547134 8.11356701 4.84547134 0.0627779266 0.217440526 0.0627779266 0.217440526 8.11356701 4.84547134 8.11356701"></polygon>    </defs>    <g id="Screens:-Enrollment" stroke="none" stroke-width="1" fill="none" fill-rule="evenodd">        <g id="desktop-payment-successful" transform="translate(-60.000000, -80.000000)">            <g id="Page-1" transform="translate(60.000000, 80.000000)">                <path d="M0,39.0576164 L0.0394905914,17.1609283 C0.036341035,15.8672121 0.741114841,15.0420822 1.99342691,14.8238298 L3.67480546,14.5304773 C4.71246315,14.3496535 5.46060392,14.62575 5.99723987,15.3823419 L14.724176,26.3955784 L14.7440425,14.597071 C14.7408929,13.3033548 15.445909,12.4782248 16.6979788,12.2599725 L19.4172573,11.7857962 C20.6693271,11.5675439 21.3241925,12.1554641 21.3273421,13.4491804 L21.2878515,35.3458684 C21.2905165,36.6393416 20.5857427,37.4647146 19.3336729,37.68321 L17.6879086,37.9700003 C16.6504932,38.1510671 15.9377243,37.8686515 15.3654742,37.1176496 L6.5716705,25.9313668 L6.54720087,37.9160449 C6.55010815,39.2095181 5.84557662,40.034891 4.62912104,40.2470673 L1.90984253,40.7210005 C0.65753046,40.9394959 0.0029072828,40.3510896 0,39.0576164" id="Fill-1" fill="#03C8FF"></path>                <path d="M25.5734771,36.5106505 C24.321165,36.7289028 23.6662996,36.1407395 23.6636345,34.8470233 L23.7028829,12.9505783 C23.6999756,11.656619 24.4047494,10.8314891 25.6568192,10.6132368 L39.1810142,8.25523659 C40.433084,8.03698426 41.0879495,8.62490452 41.091099,9.91862076 L41.1092695,11.7271014 C41.1124191,13.0210607 40.4076453,13.8461906 39.1553332,14.0644429 L30.2825484,15.6114097 L30.2726152,20.2352968 L37.7501465,18.9316158 C39.0024586,18.7128774 39.6575663,19.3017699 39.6604736,20.5954861 L39.6507827,21.8175047 C39.65369,23.1107349 38.9847726,23.9297887 37.7327028,24.1480411 L30.2549292,25.4517221 L30.2500837,29.8901677 L34.3694612,29.1909338 L39.1725346,28.383546 C40.8141803,28.064674 41.7655886,28.7444644 41.1620852,30.0379376 L39.3363116,32.9342773 C38.8335939,33.7275687 38.4871427,34.2309101 37.4225927,34.4491624 L25.5734771,36.5106505 Z" id="Fill-3" fill="#03C8FF"></path>                <path d="M42.5536803,31.2256629 L50.5254498,18.5215785 L43.3616627,9.93488031 C42.4640391,8.79695444 42.9636072,7.63788386 44.5376586,7.36324562 L47.8650437,6.78334576 C48.8668449,6.60859807 49.5309168,6.8251491 50.1390234,7.5698319 L54.5159377,12.8338935 L58.8688669,6.04765554 C59.4774581,5.09079647 60.1725409,4.63727881 61.1745844,4.46253112 L64.4658708,3.88870733 C66.0401644,3.61431214 66.5423975,4.59863503 65.6154589,6.05470378 L58.4322899,17.1430404 L66.3100572,27.0834864 C67.2139799,28.2571395 66.6722562,29.387045 65.133819,29.6551211 L61.7708196,30.24134 C60.7690184,30.4163308 60.062791,30.1693994 59.4905408,29.4191266 L54.4493124,23.0876215 L49.4010581,31.1782696 C48.7927092,32.1346426 48.1036832,32.6246166 47.101882,32.7993643 L43.7388826,33.3855833 C42.164589,33.6602215 41.6684127,32.7111398 42.5536803,31.2256629" id="Fill-5" fill="#03C8FF"></path>                <g id="Group-9" transform="translate(66.625231, 0.122980)">                    <mask id="mask-2" fill="white">                        <use xlink:href="#path-1"></use>                    </mask>                    <g id="Clip-8"></g>                    <path d="M20.7333115,1.82826433 L20.7517243,3.63650193 C20.7548739,4.93021817 20.0501001,5.7553481 18.797788,5.97384348 L13.5382711,6.89084354 L13.5021724,24.9785666 C13.5050797,26.2722828 12.8007904,27.0974127 11.5484783,27.3159081 L8.9723835,27.7648079 C7.72007143,27.9835464 7.02959177,27.4012161 7.0622987,26.1016668 L7.09839746,8.01370077 L2.295324,8.82108858 C0.653678311,9.13996059 -0.29797226,8.46041323 0.305773469,7.16669699 L2.1761254,4.26112164 C2.67884306,3.46783031 2.98071592,2.97396756 4.0450237,2.75571523 L18.8232267,0.164637118 C20.0755388,-0.0538582599 20.730162,0.534305048 20.7333115,1.82826433" id="Fill-7" fill="#03C8FF" mask="url(#mask-2)"></path>                </g>                <g id="Group-12" transform="translate(41.671053, 39.009810)">                    <mask id="mask-4" fill="white">                        <use xlink:href="#path-3"></use>                    </mask>                    <g id="Clip-11"></g>                    <polygon id="Fill-10" fill="#FFFFFF" mask="url(#mask-4)" points="0.026965048 7.53442058 0.287651406 0.247514675 1.67127575 0.00544415624 1.41034711 7.29235006"></polygon>                </g>                <polygon id="Fill-13" fill="#FFFFFF" points="50.0945662 45.0757908 47.2059385 40.4640558 47.0215683 45.6134013 45.6679859 45.8503679 45.9286722 38.5632189 47.4998163 38.2883377 50.1720938 42.6519261 50.3552526 37.7888849 51.7187682 37.55046 51.4580819 44.837609"></polygon>                <path d="M57.3336519,41.8493019 C57.2769599,41.5221665 57.0719965,41.2822833 56.6048931,41.1699976 L55.6895835,40.9420236 C54.7313916,40.7009252 54.1601105,40.1676896 54.008205,39.2951663 C53.7792564,37.9769028 54.7490775,36.8781068 56.10266,36.6411401 C57.9601714,36.3161921 58.7078276,37.5131773 58.8372017,38.2568879 L57.6006374,38.6977674 C57.5538786,38.4301774 57.2975532,37.6580307 56.2499623,37.8410419 C55.6275615,37.949925 55.2767494,38.450593 55.3576687,38.9165058 C55.4233249,39.2929789 55.705089,39.5092869 56.0454834,39.5928936 L56.9179105,39.8079864 C58.0345494,40.0821385 58.5714276,40.6523167 58.7177608,41.4947026 C58.9089147,42.5949569 58.1745835,43.8164894 56.6230636,44.0877251 C54.6863287,44.4265266 53.7557559,43.2309996 53.5851953,42.2493502 C53.5784117,42.2097342 53.5612102,42.1108159 53.568963,42.037903 L54.8055273,41.5970236 C54.8113418,41.6879216 54.8181255,41.7275375 54.8319351,41.8067694 C54.9458037,42.4610404 55.4446449,43.0479885 56.3965378,42.9016768 C57.0686047,42.7842871 57.411664,42.356532 57.3336519,41.8493019" id="Fill-15" fill="#FFFFFF"></path>                <path d="M66.190374,35.0203614 L66.007942,40.005653 C65.9524614,41.6187273 64.9969345,42.6234658 63.6334188,42.8621337 C62.1511891,43.1212172 61.0214675,42.4200391 60.7821012,41.0422301 C60.7443065,40.8242208 60.734131,40.5911428 60.7423683,40.3444545 L60.8940316,35.946597 L62.2577895,35.7081722 L62.1061263,40.1672764 C62.1041881,40.3310872 62.1102449,40.4832319 62.13423,40.6220093 C62.2480986,41.2760371 62.6812837,41.6600446 63.5110707,41.514705 C64.2226281,41.3902672 64.6109927,40.8728293 64.6441841,40.0090556 L64.806992,35.2621888 L66.190374,35.0203614 Z" id="Fill-17" fill="#FFFFFF"></path>                <path d="M70.8898513,37.4161304 C71.68039,37.2778391 72.1147865,36.7319652 71.9958302,36.0480431 C71.9134571,35.5721655 71.5614337,35.3067629 70.9390329,35.415889 L69.9214839,35.5937963 L69.8425027,37.5993845 L70.8898513,37.4161304 Z M70.6916715,38.6765497 L69.8022853,38.831854 L69.7010149,41.6479897 L68.3374993,41.8866576 L68.5981857,34.5995086 L71.0386073,34.1727257 C72.3427659,33.9445086 73.178852,34.5951339 73.3581344,35.6258779 C73.5647938,36.8153288 72.9685585,37.7775348 72.0043097,38.2628911 L73.5941089,40.966984 L72.1416788,41.2209637 L70.6916715,38.6765497 Z" id="Fill-19" fill="#FFFFFF"></path>                <path d="M77.2689386,37.3833925 L79.0971349,37.0637914 L78.2731625,34.4911845 L77.2689386,37.3833925 Z M79.4920408,38.2814352 L76.7846337,38.7551254 L76.1644134,40.5179141 L74.6330022,40.7859902 L77.5121812,33.0409488 L79.0731498,32.7680118 L81.411332,39.6004279 L79.9986348,39.8476023 L79.4920408,38.2814352 Z" id="Fill-21" fill="#FFFFFF"></path>                <polygon id="Fill-23" fill="#FFFFFF" points="87.5113928 38.5338108 84.622765 33.9220757 84.4383949 39.0714212 83.0848124 39.3081448 83.3457411 32.0212389 84.9166429 31.7463576 87.5889203 36.109946 87.7720791 31.2469049 89.1358371 31.00848 88.8749084 38.2953859"></polygon>                <path d="M97.6158964,31.7112865 L96.3606771,32.3393088 C96.1220376,31.7273273 95.5102969,31.0786464 94.4135244,31.2706501 C93.1587896,31.4901177 92.2846666,32.7869935 92.5724876,34.4421142 C92.7723633,35.5921922 93.6033616,36.2736839 94.7296914,36.0770624 C95.7276163,35.9023147 96.177276,35.1496115 96.3483211,34.435309 L97.659748,34.7165094 C97.4140826,35.8218675 96.6090075,37.1065912 94.8404105,37.4159845 C93.0025232,37.737287 91.5135098,36.6085967 91.1927396,34.7651179 C90.7346003,32.1285908 92.3617096,30.3016389 94.2868154,29.954574 C96.1738842,29.624765 97.2420683,30.6734942 97.6158964,31.7112865" id="Fill-25" fill="#FFFFFF"></path>                <g id="Group-29" transform="translate(99.332162, 28.315932)">                    <mask id="mask-6" fill="white">                        <use xlink:href="#path-5"></use>                    </mask>                    <g id="Clip-28"></g>                    <polygon id="Fill-27" fill="#FFFFFF" mask="url(#mask-6)" points="0.217440526 8.11356701 0.478126884 0.826661099 4.84559247 0.0627779266 4.79253456 1.39975576 1.7987601 1.92326971 1.73189259 3.58981343 4.44923292 3.11442193 4.40417003 4.37848696 1.68707198 4.85387846 1.62383858 6.53986559 4.62754626 6.0144073 4.58466384 7.34968383"></polygon>                </g>            </g>        </g>    </g></svg>
